<?xml version="1.0" encoding="UTF-8" standalone="no"?>
<svg
   xmlns:dc="http://purl.org/dc/elements/1.1/"
   xmlns:cc="http://creativecommons.org/ns#"
   xmlns:rdf="http://www.w3.org/1999/02/22-rdf-syntax-ns#"
   xmlns:svg="http://www.w3.org/2000/svg"
   xmlns="http://www.w3.org/2000/svg"
   xmlns:sodipodi="http://sodipodi.sourceforge.net/DTD/sodipodi-0.dtd"
   xmlns:inkscape="http://www.inkscape.org/namespaces/inkscape"
   width="21"
   height="19"
   viewBox="0 0 21 19"
   fill="none"
   version="1.1"
   id="svg827"
   sodipodi:docname="heart_hover.svg"
   inkscape:version="0.92.2 (5c3e80d, 2017-08-06)">
  <metadata
     id="metadata833">
    <rdf:RDF>
      <cc:Work
         rdf:about="">
        <dc:format>image/svg+xml</dc:format>
        <dc:type
           rdf:resource="http://purl.org/dc/dcmitype/StillImage" />
        <dc:title />
      </cc:Work>
    </rdf:RDF>
  </metadata>
  <defs
     id="defs831" />
  <sodipodi:namedview
     pagecolor="#ffffff"
     bordercolor="#666666"
     borderopacity="1"
     objecttolerance="10"
     gridtolerance="10"
     guidetolerance="10"
     inkscape:pageopacity="0"
     inkscape:pageshadow="2"
     inkscape:window-width="699"
     inkscape:window-height="388"
     id="namedview829"
     showgrid="false"
     inkscape:zoom="5.8095465"
     inkscape:cx="10.5"
     inkscape:cy="9.5"
     inkscape:window-x="78"
     inkscape:window-y="78"
     inkscape:window-maximized="0"
     inkscape:current-layer="svg827" />
  <path
     d="M19.1599 9.33822C21.2999 7.19833 21.2999 3.72364 19.1599 1.60492C17.0199 -0.534975 13.5451 -0.534975 11.4051 1.60492L10.3668 2.66428L9.32862 1.62611C7.18862 -0.534975 3.71378 -0.534975 1.59497 1.60492C0.55675 2.64309 0.00585938 4.02026 0.00585938 5.48217C0.00585938 6.94408 0.577938 8.32124 1.59497 9.35941L10.3668 18.1309L19.1599 9.33822ZM1.3619 5.48217C1.3619 4.38044 1.78566 3.36346 2.56962 2.60072C3.37477 1.79561 4.41298 1.39305 5.4512 1.39305C6.48942 1.39305 7.52764 1.79561 8.33278 2.60072L10.3668 4.6135L12.4009 2.57953C13.99 0.990498 16.5961 0.990498 18.1641 2.57953C18.9268 3.34227 19.3718 4.35925 19.3718 5.46098C19.3718 6.56271 18.948 7.57969 18.1641 8.34243L10.3668 16.1605L2.56962 8.36362C1.80685 7.57969 1.3619 6.56271 1.3619 5.48217Z"
     fill="black"
     id="path825" />
  <path
     style="opacity:1;fill:#ffaaaa;fill-opacity:1;fill-rule:nonzero;stroke:#000000;stroke-width:0.08245932;stroke-linecap:round;stroke-linejoin:round;stroke-miterlimit:4;stroke-dasharray:none;stroke-opacity:1"
     d="M 6.3613509,12.121651 C 3.3267785,9.0962596 2.308985,8.0611448 2.1597308,7.8485258 0.9803787,6.1684874 1.1535922,4.0302215 2.5835294,2.6168647 4.0386715,1.1785952 6.2316545,1.0119289 7.8566125,2.2161113 c 0.1518649,0.1125402 0.772151,0.6966225 1.3784132,1.2979607 0.6062625,0.6013382 1.1157883,1.0933421 1.1322783,1.0933421 0.01649,0 0.556354,-0.5229607 1.199694,-1.1621349 1.216107,-1.2082306 1.422773,-1.3812259 1.954731,-1.636263 1.136326,-0.544789 2.498559,-0.5287371 3.609876,0.042537 0.82149,0.4222882 1.529429,1.180044 1.897208,2.0307113 0.444617,1.028392 0.42358,2.2694579 -0.05581,3.2924502 -0.283769,0.6055472 -0.263206,0.5834557 -4.534223,4.8712163 -2.22113,2.229838 -4.046148,4.057401 -4.055596,4.061254 -0.0094,0.0039 -1.819273,-1.789638 -4.0218331,-3.985534 z"
     id="path835"
     inkscape:connector-curvature="0" />
  <path
     style="opacity:1;fill:#aa0000;fill-opacity:1;fill-rule:nonzero;stroke:#000000;stroke-width:0.41311315;stroke-linecap:round;stroke-linejoin:round;stroke-miterlimit:4;stroke-dasharray:none;stroke-opacity:1"
     d="M 6.2881766,11.90122 C 3.764014,9.3620261 2.170594,7.6215129 1.9289014,7.1395275 1.3864053,6.0576767 1.4848891,4.3664532 2.1488052,3.3632083 2.8640524,2.2823967 3.8192813,1.7298964 5.1153553,1.6473687 c 1.5658575,-0.099706 2.135655,0.1597888 3.7905366,1.726272 l 1.4616331,1.3835574 1.433152,-1.3758838 c 1.630739,-1.5655743 2.222402,-1.8349445 3.808559,-1.7339456 2.004272,0.1276224 3.373147,1.4964973 3.50077,3.5007694 0.118333,1.8583967 0.04492,1.9656849 -4.491464,6.5643579 -2.273699,2.304917 -4.183053,4.190758 -4.24301,4.190758 -0.05996,0 -1.8992669,-1.800915 -4.0873554,-4.002034 z"
     id="path4510"
     inkscape:connector-curvature="0" />
</svg>
